<svg xmlns="http://www.w3.org/2000/svg" viewBox="0 0 512 512"><rect width="512" height="512" rx="112" fill="#FBF0DF"/><defs><clipPath id="c"><circle cx="256" cy="262" r="196"/></clipPath></defs><circle cx="256" cy="262" r="196" fill="#F6DCC0"/><g clip-path="url(#c)"><g transform="translate(56 60) scale(2.05)"><path d="M58 198C52 162 50 122 60 94C67 63 89 45 117 47C133 48 144 55 153 64C164 74 177 82 185 90C191 96 189 107 181 109C167 113 147 116 129 118C117 120 111 127 109 137C107 157 113 179 123 198Z" fill="#C98A5B"/><path d="M109 137C107 157 113 179 123 198L98 198C96 176 99 154 109 137Z" fill="#F7E6D0"/><path d="M150 62C160 71 172 80 181 88C173 86 160 80 150 70Z" fill="#F7E6D0" opacity=".75"/><path d="M104 54C92 47 76 50 63 64C74 63 84 67 91 76C95 67 99 60 104 54Z" fill="#8F5A38"/><path d="M91 76C86 70 78 67 70 66" fill="none" stroke="#6E4229" stroke-width="2" stroke-linecap="round" opacity=".6"/><ellipse cx="184" cy="97" rx="6.5" ry="5.5" fill="#2A2530"/><circle cx="149" cy="97" r="8" fill="#F29A8A" opacity=".35"/><path d="M56 150C76 159 96 163 113 158" fill="none" stroke="#E0673B" stroke-width="11" stroke-linecap="round"/><circle cx="97" cy="176" r="11" fill="#E3A21A" stroke="#B97C0B" stroke-width="3"/><text x="97" y="180.5" text-anchor="middle" font-family="Atkinson Hyperlegible, sans-serif" font-weight="700" font-size="12" fill="#fff">R</text><ellipse cx="136" cy="73" rx="6" ry="6.6" fill="#2A2530"/><circle cx="138.2" cy="70.6" r="2" fill="#fff"/><path d="M180 109C172 114 161 114 153 111" fill="none" stroke="#2A2530" stroke-width="2.6" stroke-linecap="round"/></g></g></svg>